<svg width="800" height="600" viewBox="0 0 800 600" fill="none" xmlns="http://www.w3.org/2000/svg">
  <!-- Background -->
  <rect width="800" height="600" fill="#F5F4F0"/>
  
  <!-- Browser Frame -->
  <rect x="80" y="40" width="640" height="520" rx="8" fill="#FFFFFF" stroke="#E5E5E5" stroke-width="1"/>
  
  <!-- Browser Header -->
  <rect x="80" y="40" width="640" height="32" rx="8" fill="#FAFAFA"/>
  <rect x="80" y="68" width="640" height="4" fill="#FAFAFA"/>
  
  <!-- Traffic Lights -->
  <circle cx="104" cy="56" r="5" fill="#FF5F56"/>
  <circle cx="120" cy="56" r="5" fill="#FFBD2E"/>
  <circle cx="136" cy="56" r="5" fill="#27CA40"/>
  
  <!-- Content Area - Contact/Inquiry -->
  <rect x="100" y="90" width="600" height="450" fill="#FCFCFA"/>
  
  <!-- Header -->
  <text x="130" y="130" fill="#0F0F0F" font-family="Georgia" font-size="24">Start a conversation</text>
  <text x="130" y="160" fill="#6B6B6B" font-family="system-ui" font-size="12">Tell us about your project. We'll respond within 2 business days.</text>
  
  <!-- Is Vessel Right Section -->
  <rect x="130" y="190" width="540" height="90" rx="8" fill="#F8F8F6"/>
  <text x="150" y="220" fill="#0F0F0F" font-family="system-ui" font-size="13" font-weight="500">Is Vessel right for you?</text>
  <text x="150" y="245" fill="#6B6B6B" font-family="system-ui" font-size="11">We specialize in residential projects from 150-500m².</text>
  <text x="150" y="265" fill="#6B6B6B" font-family="system-ui" font-size="11">Typical project budgets range from €400K-2M. Timeline: 12-24 months.</text>
  
  <!-- Form Fields -->
  <text x="130" y="310" fill="#6B6B6B" font-family="system-ui" font-size="10">PROJECT TYPE</text>
  <rect x="130" y="320" width="260" height="40" rx="6" fill="#FFFFFF" stroke="#E5E5E5" stroke-width="1"/>
  <text x="150" y="345" fill="#0F0F0F" font-family="system-ui" font-size="12">Residential</text>
  <text x="370" y="345" fill="#6B6B6B" font-family="system-ui" font-size="11">▼</text>
  
  <text x="410" y="310" fill="#6B6B6B" font-family="system-ui" font-size="10">BUDGET RANGE</text>
  <rect x="410" y="320" width="260" height="40" rx="6" fill="#FFFFFF" stroke="#E5E5E5" stroke-width="1"/>
  <text x="430" y="345" fill="#0F0F0F" font-family="system-ui" font-size="12">€500K - €1M</text>
  <text x="650" y="345" fill="#6B6B6B" font-family="system-ui" font-size="11">▼</text>
  
  <text x="130" y="390" fill="#6B6B6B" font-family="system-ui" font-size="10">TIMELINE</text>
  <rect x="130" y="400" width="260" height="40" rx="6" fill="#FFFFFF" stroke="#E5E5E5" stroke-width="1"/>
  <text x="150" y="425" fill="#0F0F0F" font-family="system-ui" font-size="12">12-18 months</text>
  <text x="370" y="425" fill="#6B6B6B" font-family="system-ui" font-size="11">▼</text>
  
  <text x="410" y="390" fill="#6B6B6B" font-family="system-ui" font-size="10">EMAIL</text>
  <rect x="410" y="400" width="260" height="40" rx="6" fill="#FFFFFF" stroke="#E5E5E5" stroke-width="1"/>
  <text x="430" y="425" fill="#9CA3AF" font-family="system-ui" font-size="12">you@email.com</text>
  
  <text x="130" y="470" fill="#6B6B6B" font-family="system-ui" font-size="10">TELL US ABOUT YOUR PROJECT</text>
  <rect x="130" y="480" width="540" height="60" rx="6" fill="#FFFFFF" stroke="#E5E5E5" stroke-width="1"/>
  <text x="150" y="510" fill="#9CA3AF" font-family="system-ui" font-size="11">Describe your vision, site, and any constraints...</text>
  
  <!-- Label -->
  <text x="400" y="575" text-anchor="middle" fill="#6B6B6B" font-family="system-ui" font-size="12">Inquiry Form — Lead Qualification Built In</text>
</svg>